<svg xmlns="http://www.w3.org/2000/svg" width="256" height="256" viewBox="0 0 256 256">
<defs>
<radialGradient id="s"><stop offset="0" stop-color="#061A18" stop-opacity="0.5"/><stop offset="0.55" stop-color="#061A18" stop-opacity="0.25"/><stop offset="1" stop-color="#061A18" stop-opacity="0"/></radialGradient>
<radialGradient id="b" cx=".34" cy=".3" r=".85"><stop offset="0" stop-color="#4FA898"/><stop offset="0.35" stop-color="#23736A"/><stop offset="0.72" stop-color="#134B45"/><stop offset="1" stop-color="#0A2C29"/></radialGradient>
<linearGradient id="g" x2="1" y2="1"><stop offset="0" stop-color="#FFF2B8"/><stop offset="0.35" stop-color="#F4C85C"/><stop offset="0.7" stop-color="#DA9A30"/><stop offset="1" stop-color="#A8681A"/></linearGradient>
<radialGradient id="w" cx=".5" cy=".45" r=".6"><stop offset="0" stop-color="#FFF8D8"/><stop offset="0.4" stop-color="#FFD26A"/><stop offset="0.8" stop-color="#F2932E"/><stop offset="1" stop-color="#C25A1C"/></radialGradient>
<radialGradient id="a"><stop offset="0" stop-color="#FFD98A" stop-opacity="0.65"/><stop offset="0.6" stop-color="#FFC867" stop-opacity="0.25"/><stop offset="1" stop-color="#FFC867" stop-opacity="0"/></radialGradient>
</defs>
<ellipse cx="130" cy="226" rx="92" ry="14" fill="url(#s)"/>
<g transform="translate(128 134) scale(.94) translate(-128 -134)">
<ellipse cx="128" cy="62" rx="92" ry="40" fill="url(#a)"/>
<path d="M48 100C28 98 24 124 42 128M208 100C228 98 232 124 214 128" fill="none" stroke="#06201D" stroke-width="16" stroke-linecap="round"/>
<path d="M48 100C28 98 24 124 42 128M208 100C228 98 232 124 214 128" fill="none" stroke="url(#g)" stroke-width="8" stroke-linecap="round"/>
<path d="M40 82C30 152 66 226 128 226C190 226 226 152 216 82Z" fill="url(#b)" stroke="#06201D" stroke-width="7" stroke-linejoin="round"/>
<path d="M50 112C50 150 66 186 92 206" fill="none" stroke="#8FE0D0" stroke-width="5" stroke-linecap="round" opacity=".4"/>
<path d="M44 148C78 182 178 182 212 148" fill="none" stroke="#E6B65A" stroke-width="5" stroke-linecap="round" opacity=".85"/>
<circle cx="52" cy="160" r="4" fill="#F4CF72"/><circle cx="204" cy="160" r="4" fill="#F4CF72"/>
<ellipse cx="128" cy="82" rx="96" ry="29" fill="url(#g)" stroke="#5A3A08" stroke-width="5"/>
<ellipse cx="128" cy="80" rx="76" ry="19" fill="url(#w)" stroke="#8A5410" stroke-width="3"/>
<path d="M44 76A84 22 0 0 1 112 56" fill="none" stroke="#FFFBE6" stroke-width="4" stroke-linecap="round" opacity=".8"/>
<path transform="translate(70 40) scale(0.9)" d="M0-11L2.6-2.6L11 0L2.6 2.6L0 11L-2.6 2.6L-11 0L-2.6-2.6Z" fill="#FFF3C6"/>
<path transform="translate(190 34) scale(0.7)" d="M0-11L2.6-2.6L11 0L2.6 2.6L0 11L-2.6 2.6L-11 0L-2.6-2.6Z" fill="#FFF3C6"/>
<path transform="translate(150 50) scale(0.45)" d="M0-11L2.6-2.6L11 0L2.6 2.6L0 11L-2.6 2.6L-11 0L-2.6-2.6Z" fill="#FFF3C6"/>
</g>
</svg>
